<?xml version="1.0" encoding="UTF-8" standalone="no"?>
<!-- Created with Inkscape (http://www.inkscape.org/) -->

<svg
   xmlns:dc="http://purl.org/dc/elements/1.1/"
   xmlns:cc="http://creativecommons.org/ns#"
   xmlns:rdf="http://www.w3.org/1999/02/22-rdf-syntax-ns#"
   xmlns:svg="http://www.w3.org/2000/svg"
   xmlns="http://www.w3.org/2000/svg"
   xmlns:xlink="http://www.w3.org/1999/xlink"
   xmlns:sodipodi="http://sodipodi.sourceforge.net/DTD/sodipodi-0.dtd"
   xmlns:inkscape="http://www.inkscape.org/namespaces/inkscape"
   width="1024"
   height="576"
   viewBox="0 0 1024 576.00001"
   id="svg2"
   version="1.1"
   inkscape:version="0.91 r13725"
   sodipodi:docname="quantum-mechanic.svg">
  <defs
     id="defs4">
    <linearGradient
       inkscape:collect="always"
       id="linearGradient4162">
      <stop
         style="stop-color:#000000;stop-opacity:0.25098041"
         offset="0"
         id="stop4164" />
      <stop
         id="stop4170"
         offset="0.5"
         style="stop-color:#000000;stop-opacity:0" />
      <stop
         style="stop-color:#000000;stop-opacity:0.25098041"
         offset="1"
         id="stop4166" />
    </linearGradient>
    <linearGradient
       inkscape:collect="always"
       xlink:href="#linearGradient4162"
       id="linearGradient4168"
       x1="232.50362"
       y1="405.62112"
       x2="240.16377"
       y2="447.04971"
       gradientUnits="userSpaceOnUse"
       gradientTransform="matrix(2.3579477,0,0,2.3579477,-81.126521,-174.72862)" />
  </defs>
  <sodipodi:namedview
     id="base"
     pagecolor="#ffffff"
     bordercolor="#666666"
     borderopacity="1.0"
     inkscape:pageopacity="0.0"
     inkscape:pageshadow="2"
     inkscape:zoom="0.95106629"
     inkscape:cx="364.01499"
     inkscape:cy="304.75053"
     inkscape:document-units="px"
     inkscape:current-layer="layer1"
     showgrid="true"
     inkscape:window-width="1920"
     inkscape:window-height="1025"
     inkscape:window-x="-2"
     inkscape:window-y="-3"
     inkscape:window-maximized="1"
     units="px">
    <inkscape:grid
       type="xygrid"
       id="grid4155"
       empspacing="4"
       empcolor="#0000ff"
       empopacity="0.1254902"
       color="#0000ff"
       opacity="0.0627451" />
  </sodipodi:namedview>
  <metadata
     id="metadata7">
    <rdf:RDF>
      <cc:Work
         rdf:about="">
        <dc:format>image/svg+xml</dc:format>
        <dc:type
           rdf:resource="http://purl.org/dc/dcmitype/StillImage" />
        <dc:title></dc:title>
      </cc:Work>
    </rdf:RDF>
  </metadata>
  <g
     inkscape:label="Layer 1"
     inkscape:groupmode="layer"
     id="layer1"
     transform="translate(0,-476.36214)">
    <g
       style="font-style:normal;font-variant:normal;font-weight:normal;font-stretch:normal;font-size:94.31790924px;line-height:125%;font-family:Calibri;-inkscape-font-specification:'Calibri, Normal';text-align:start;letter-spacing:0px;word-spacing:0px;writing-mode:lr-tb;text-anchor:start;fill:#000000;fill-opacity:1;stroke:#000000;stroke-width:2.35794759px;stroke-linecap:butt;stroke-linejoin:round;stroke-opacity:1"
       id="logo_uantum">
      <path
         d="m 543.41583,765.13644 q 0,0.36843 -0.18421,0.64475 -0.13816,0.23027 -0.55265,0.41448 -0.41448,0.18422 -1.10529,0.27633 -0.64475,0.0921 -1.61187,0.0921 -1.05924,0 -1.75004,-0.0921 -0.64475,-0.0921 -1.05924,-0.27633 -0.36843,-0.18421 -0.50659,-0.41448 -0.13816,-0.27632 -0.13816,-0.64475 l 0,-5.48039 q -3.54613,3.91456 -7.00016,5.71066 -3.45402,1.79609 -7.00015,1.79609 -4.14483,0 -7.00016,-1.38161 -2.80927,-1.38161 -4.55931,-3.73035 -1.75004,-2.39479 -2.53296,-5.52644 -0.73685,-3.1777 -0.73685,-7.69096 l 0,-25.1453 q 0,-0.36843 0.13816,-0.5987 0.18421,-0.27632 0.64475,-0.46054 0.46054,-0.23026 1.19739,-0.27632 0.73686,-0.0921 1.84215,-0.0921 1.10529,0 1.84215,0.0921 0.73686,0.0461 1.15134,0.27632 0.46054,0.18422 0.64475,0.46054 0.18421,0.23027 0.18421,0.5987 l 0,24.13212 q 0,3.63824 0.5066,5.84882 0.55264,2.16452 1.61187,3.73034 1.10529,1.51977 2.76322,2.39479 1.65794,0.82897 3.86851,0.82897 2.85533,0 5.6646,-2.02636 2.85533,-2.02636 6.03303,-5.94092 l 0,-28.96776 q 0,-0.36843 0.13816,-0.5987 0.18422,-0.27632 0.64476,-0.46054 0.46053,-0.23026 1.15134,-0.27632 0.73686,-0.0921 1.8882,-0.0921 1.10529,0 1.84214,0.0921 0.73686,0.0461 1.15135,0.27632 0.41448,0.18422 0.59869,0.46054 0.23027,0.23027 0.23027,0.5987 l 0,41.4483 z"
         style="stroke-width:2.35794759px"
         id="path8178" />
      <path
         d="m 588.68659,765.18249 q 0,0.55265 -0.36843,0.82897 -0.36843,0.27632 -1.01318,0.41448 -0.64476,0.13816 -1.8882,0.13816 -1.1974,0 -1.93426,-0.13816 -0.6908,-0.13816 -1.01318,-0.41448 -0.32237,-0.27632 -0.32237,-0.82897 l 0,-4.14483 q -2.71717,2.90138 -6.07909,4.51326 -3.31586,1.61188 -7.04621,1.61188 -3.26981,0 -5.94092,-0.87502 -2.62506,-0.82897 -4.51326,-2.44084 -1.84215,-1.61188 -2.90138,-3.96062 -1.01318,-2.34874 -1.01318,-5.34222 0,-3.50008 1.42766,-6.07909 1.42766,-2.579 4.09878,-4.28299 2.67111,-1.70398 6.53962,-2.53295 3.8685,-0.87502 8.70414,-0.87502 l 5.71065,0 0,-3.22376 q 0,-2.39479 -0.50659,-4.23693 -0.50659,-1.84215 -1.65793,-3.03955 -1.10529,-1.24345 -2.90138,-1.84214 -1.79609,-0.64475 -4.42115,-0.64475 -2.80927,0 -5.0659,0.6908 -2.21058,0.64475 -3.91457,1.47372 -1.65793,0.78291 -2.80927,1.47372 -1.10529,0.64475 -1.65793,0.64475 -0.36843,0 -0.64475,-0.18422 -0.27632,-0.18421 -0.50659,-0.55264 -0.18422,-0.36843 -0.27633,-0.92108 -0.0921,-0.59869 -0.0921,-1.2895 0,-1.15134 0.13816,-1.79609 0.18421,-0.69081 0.78291,-1.2895 0.64475,-0.5987 2.16452,-1.38161 1.51977,-0.82897 3.50008,-1.47372 1.98031,-0.69081 4.32905,-1.10529 2.34873,-0.46054 4.74352,-0.46054 4.46721,0 7.59886,1.01318 3.13165,1.01319 5.0659,2.99349 1.93426,1.93426 2.80928,4.83564 0.87502,2.90138 0.87502,6.76989 l 0,27.95457 z m -7.55281,-18.92805 -6.49356,0 q -3.13165,0 -5.43434,0.55264 -2.30268,0.50659 -3.82245,1.56582 -1.51977,1.01319 -2.25663,2.4869 -0.6908,1.42767 -0.6908,3.31587 0,3.22375 2.02636,5.15801 2.07241,1.8882 5.75671,1.8882 2.99348,0 5.52644,-1.51977 2.579,-1.51977 5.38827,-4.65142 l 0,-8.79625 z"
         style="stroke-width:2.35794759px"
         id="path8180" />
      <path
         d="m 638.28639,765.13644 q 0,0.36843 -0.18422,0.64475 -0.18421,0.23027 -0.5987,0.41448 -0.41448,0.18422 -1.15134,0.27633 -0.73686,0.0921 -1.84214,0.0921 -1.15135,0 -1.8882,-0.0921 -0.73686,-0.0921 -1.15135,-0.27633 -0.41448,-0.18421 -0.59869,-0.41448 -0.18422,-0.27632 -0.18422,-0.64475 l 0,-24.27028 q 0,-3.54614 -0.55264,-5.71066 -0.55265,-2.16452 -1.61188,-3.73034 -1.05924,-1.56583 -2.76322,-2.3948 -1.65793,-0.82896 -3.86851,-0.82896 -2.85533,0 -5.71065,2.02636 -2.85533,2.02636 -5.98698,5.94092 l 0,28.96776 q 0,0.36843 -0.18421,0.64475 -0.18422,0.23027 -0.5987,0.41448 -0.41449,0.18422 -1.15134,0.27633 -0.73686,0.0921 -1.8882,0.0921 -1.10529,0 -1.84215,-0.0921 -0.73686,-0.0921 -1.1974,-0.27633 -0.41448,-0.18421 -0.59869,-0.41448 -0.13817,-0.27632 -0.13817,-0.64475 l 0,-41.4483 q 0,-0.36843 0.13817,-0.5987 0.13816,-0.27632 0.55264,-0.46054 0.41448,-0.23026 1.05923,-0.27632 0.64476,-0.0921 1.70399,-0.0921 1.01318,0 1.65793,0.0921 0.69081,0.0461 1.05924,0.27632 0.36843,0.18422 0.50659,0.46054 0.18421,0.23027 0.18421,0.5987 l 0,5.48039 q 3.50008,-3.91457 6.9541,-5.71066 3.50008,-1.84215 7.04622,-1.84215 4.14483,0 6.9541,1.42767 2.85533,1.38161 4.60537,3.73034 1.75004,2.34874 2.48689,5.52644 0.78292,3.13165 0.78292,7.55281 l 0,25.28346 z"
         style="stroke-width:2.35794759px"
         id="path8182" />
      <path
         d="m 672.78059,762.0969 q 0,1.33555 -0.18422,2.11847 -0.18421,0.78291 -0.55264,1.15134 -0.36843,0.36843 -1.10529,0.6908 -0.73686,0.32238 -1.70399,0.50659 -0.92107,0.23027 -1.9803,0.36843 -1.05924,0.13816 -2.11847,0.13816 -3.22376,0 -5.52644,-0.82896 -2.30269,-0.87502 -3.7764,-2.57901 -1.47372,-1.75004 -2.16453,-4.3751 -0.64475,-2.67111 -0.64475,-6.2633 l 0,-24.22422 -5.80276,0 q -0.6908,0 -1.10529,-0.73686 -0.41448,-0.73686 -0.41448,-2.39479 0,-0.87502 0.0921,-1.47372 0.13816,-0.5987 0.32237,-0.96713 0.18422,-0.41448 0.46054,-0.55264 0.32238,-0.18422 0.6908,-0.18422 l 5.75671,0 0,-9.85548 q 0,-0.32238 0.13816,-0.5987 0.18422,-0.27632 0.5987,-0.46054 0.46054,-0.23026 1.1974,-0.32237 0.73686,-0.0921 1.84214,-0.0921 1.15135,0 1.8882,0.0921 0.73686,0.0921 1.15135,0.32237 0.41448,0.18422 0.59869,0.46054 0.18422,0.27632 0.18422,0.5987 l 0,9.85548 10.6384,0 q 0.36842,0 0.64475,0.18422 0.27632,0.13816 0.46053,0.55264 0.23027,0.36843 0.32238,0.96713 0.0921,0.5987 0.0921,1.47372 0,1.65793 -0.41449,2.39479 -0.41448,0.73686 -1.10528,0.73686 l -10.6384,0 0,23.11894 q 0,4.28299 1.24345,6.49356 1.2895,2.16453 4.55931,2.16453 1.05923,0 1.8882,-0.18422 0.82897,-0.23027 1.47372,-0.46054 0.64475,-0.23026 1.10529,-0.41448 0.46053,-0.23027 0.82896,-0.23027 0.23027,0 0.41448,0.13816 0.23027,0.0921 0.32238,0.41449 0.13816,0.32237 0.23027,0.87502 0.0921,0.55264 0.0921,1.38161 z"
         style="stroke-width:2.35794759px"
         id="path8184" />
      <path
         d="m 718.41977,765.13644 q 0,0.36843 -0.18422,0.64475 -0.13816,0.23027 -0.55264,0.41448 -0.41448,0.18422 -1.10529,0.27633 -0.64475,0.0921 -1.61188,0.0921 -1.05923,0 -1.75004,-0.0921 -0.64475,-0.0921 -1.05923,-0.27633 -0.36843,-0.18421 -0.50659,-0.41448 -0.13816,-0.27632 -0.13816,-0.64475 l 0,-5.48039 q -3.54613,3.91456 -7.00016,5.71066 -3.45402,1.79609 -7.00016,1.79609 -4.14483,0 -7.00015,-1.38161 -2.80928,-1.38161 -4.55932,-3.73035 -1.75004,-2.39479 -2.53295,-5.52644 -0.73686,-3.1777 -0.73686,-7.69096 l 0,-25.1453 q 0,-0.36843 0.13816,-0.5987 0.18422,-0.27632 0.64476,-0.46054 0.46053,-0.23026 1.19739,-0.27632 0.73686,-0.0921 1.84215,-0.0921 1.10529,0 1.84214,0.0921 0.73686,0.0461 1.15135,0.27632 0.46053,0.18422 0.64475,0.46054 0.18421,0.23027 0.18421,0.5987 l 0,24.13212 q 0,3.63824 0.50659,5.84882 0.55265,2.16452 1.61188,3.73034 1.10529,1.51977 2.76322,2.39479 1.65793,0.82897 3.86851,0.82897 2.85533,0 5.6646,-2.02636 2.85533,-2.02636 6.03303,-5.94092 l 0,-28.96776 q 0,-0.36843 0.13816,-0.5987 0.18422,-0.27632 0.64475,-0.46054 0.46054,-0.23026 1.15134,-0.27632 0.73686,-0.0921 1.8882,-0.0921 1.10529,0 1.84215,0.0921 0.73686,0.0461 1.15134,0.27632 0.41449,0.18422 0.5987,0.46054 0.23027,0.23027 0.23027,0.5987 l 0,41.4483 z"
         style="stroke-width:2.35794759px"
         id="path8186" />
      <path
         d="m 793.94778,765.13644 q 0,0.36843 -0.18422,0.64475 -0.18421,0.23027 -0.59869,0.41448 -0.41449,0.18422 -1.15135,0.27633 -0.73685,0.0921 -1.84214,0.0921 -1.15134,0 -1.8882,-0.0921 -0.73686,-0.0921 -1.1974,-0.27633 -0.41448,-0.18421 -0.5987,-0.41448 -0.18421,-0.27632 -0.18421,-0.64475 l 0,-25.19136 q 0,-2.62506 -0.46054,-4.78958 -0.46053,-2.16452 -1.47371,-3.73034 -1.01319,-1.56583 -2.57901,-2.3948 -1.56582,-0.82896 -3.68429,-0.82896 -2.62506,0 -5.29618,2.02636 -2.62505,2.02636 -5.80276,5.94092 l 0,28.96776 q 0,0.36843 -0.18421,0.64475 -0.18422,0.23027 -0.64475,0.41448 -0.41449,0.18422 -1.15134,0.27633 -0.73686,0.0921 -1.84215,0.0921 -1.05924,0 -1.84215,-0.0921 -0.73686,-0.0921 -1.19739,-0.27633 -0.41449,-0.18421 -0.5987,-0.41448 -0.13816,-0.27632 -0.13816,-0.64475 l 0,-25.19136 q 0,-2.62506 -0.50659,-4.78958 -0.50659,-2.16452 -1.51977,-3.73034 -1.01318,-1.56583 -2.57901,-2.3948 -1.51977,-0.82896 -3.63824,-0.82896 -2.62506,0 -5.29617,2.02636 -2.67111,2.02636 -5.80276,5.94092 l 0,28.96776 q 0,0.36843 -0.18422,0.64475 -0.18421,0.23027 -0.59869,0.41448 -0.41449,0.18422 -1.15135,0.27633 -0.73685,0.0921 -1.8882,0.0921 -1.10528,0 -1.84214,-0.0921 -0.73686,-0.0921 -1.1974,-0.27633 -0.41448,-0.18421 -0.5987,-0.41448 -0.13816,-0.27632 -0.13816,-0.64475 l 0,-41.4483 q 0,-0.36843 0.13816,-0.5987 0.13816,-0.27632 0.55265,-0.46054 0.41448,-0.23026 1.05923,-0.27632 0.64475,-0.0921 1.70399,-0.0921 1.01318,0 1.65793,0.0921 0.6908,0.0461 1.05923,0.27632 0.36843,0.18422 0.50659,0.46054 0.18422,0.23027 0.18422,0.5987 l 0,5.48039 q 3.50008,-3.91457 6.76989,-5.71066 3.31586,-1.84215 6.67778,-1.84215 2.57901,0 4.60537,0.5987 2.07241,0.5987 3.63824,1.70399 1.56582,1.05923 2.67111,2.579 1.10529,1.47372 1.84215,3.31587 2.07241,-2.25663 3.91456,-3.82246 1.8882,-1.56582 3.59218,-2.53295 1.75004,-0.96713 3.36192,-1.38161 1.65793,-0.46054 3.31586,-0.46054 4.00667,0 6.72384,1.42767 2.71717,1.38161 4.3751,3.73034 1.70398,2.34874 2.39479,5.52644 0.73686,3.13165 0.73686,6.63173 l 0,26.20454 z"
         style="stroke-width:2.35794759px"
         id="path8188" />
    </g>
    <g
       style="font-style:normal;font-variant:normal;font-weight:normal;font-stretch:normal;font-size:94.31790924px;line-height:125%;font-family:Calibri;-inkscape-font-specification:'Calibri, Normal';text-align:start;letter-spacing:0px;word-spacing:0px;writing-mode:lr-tb;text-anchor:start;fill:#000000;fill-opacity:1;stroke:#000000;stroke-width:2.35794759px;stroke-linecap:butt;stroke-linejoin:round;stroke-opacity:1"
       id="logo_the">
      <path
         d="m 274.63219,710.10231 q 0,0.87502 -0.0921,1.51977 -0.0921,0.64475 -0.32237,1.05923 -0.18422,0.36843 -0.50659,0.55265 -0.27633,0.18421 -0.64476,0.18421 l -16.76353,0 0,51.67222 q 0,0.36842 -0.18421,0.64475 -0.18422,0.27632 -0.64476,0.46053 -0.46053,0.13816 -1.24345,0.23027 -0.73685,0.13816 -1.8882,0.13816 -1.10528,0 -1.8882,-0.13816 -0.78291,-0.0921 -1.24344,-0.23027 -0.46054,-0.18421 -0.64476,-0.46053 -0.18421,-0.27633 -0.18421,-0.64475 l 0,-51.67222 -16.76354,0 q -0.36842,0 -0.6908,-0.18421 -0.27632,-0.18422 -0.46054,-0.55265 -0.18421,-0.41448 -0.32237,-1.05923 -0.0921,-0.64475 -0.0921,-1.51977 0,-0.87502 0.0921,-1.51977 0.13816,-0.69081 0.32237,-1.10529 0.18422,-0.41448 0.46054,-0.5987 0.32238,-0.18421 0.6908,-0.18421 l 41.4483,0 q 0.36843,0 0.64476,0.18421 0.32237,0.18422 0.50659,0.5987 0.23026,0.41448 0.32237,1.10529 0.0921,0.64475 0.0921,1.51977 z"
         style="stroke-width:2.35794759px"
         id="path8171" />
      <path
         d="m 318.1529,765.13644 q 0,0.36843 -0.18421,0.64475 -0.18422,0.23027 -0.5987,0.41448 -0.41448,0.18422 -1.15134,0.27633 -0.73686,0.0921 -1.84215,0.0921 -1.15134,0 -1.8882,-0.0921 -0.73686,-0.0921 -1.15134,-0.27633 -0.41448,-0.18421 -0.5987,-0.41448 -0.18421,-0.27632 -0.18421,-0.64475 l 0,-24.27028 q 0,-3.54614 -0.55265,-5.71066 -0.55264,-2.16452 -1.61187,-3.73034 -1.05924,-1.56583 -2.76322,-2.3948 -1.65794,-0.82896 -3.86851,-0.82896 -2.85533,0 -5.71066,2.02636 -2.85532,2.02636 -5.98697,5.94092 l 0,28.96776 q 0,0.36843 -0.18422,0.64475 -0.18421,0.23027 -0.5987,0.41448 -0.41448,0.18422 -1.15134,0.27633 -0.73686,0.0921 -1.8882,0.0921 -1.10529,0 -1.84214,-0.0921 -0.73686,-0.0921 -1.1974,-0.27633 -0.41448,-0.18421 -0.5987,-0.41448 -0.13816,-0.27632 -0.13816,-0.64475 l 0,-61.5277 q 0,-0.36843 0.13816,-0.64475 0.18422,-0.27632 0.5987,-0.46054 0.46054,-0.18421 1.1974,-0.27632 0.73685,-0.0921 1.84214,-0.0921 1.15134,0 1.8882,0.0921 0.73686,0.0921 1.15134,0.27632 0.41449,0.18422 0.5987,0.46054 0.18422,0.27632 0.18422,0.64475 l 0,24.82293 q 3.26981,-3.45403 6.58567,-5.11196 3.31586,-1.70399 6.67778,-1.70399 4.14483,0 6.95411,1.42767 2.85532,1.38161 4.60536,3.73034 1.75004,2.34874 2.4869,5.52644 0.78291,3.13165 0.78291,7.59886 l 0,25.23741 z"
         style="stroke-width:2.35794759px"
         id="path8173" />
      <path
         d="m 367.38427,742.6162 q 0,1.79609 -0.92107,2.579 -0.87502,0.73686 -2.02637,0.73686 l -27.17166,0 q 0,3.45403 0.69081,6.21725 0.6908,2.76322 2.30268,4.74352 1.61188,1.98031 4.19088,3.03954 2.57901,1.05924 6.30935,1.05924 2.94744,0 5.25012,-0.46054 2.30269,-0.50659 3.96062,-1.10529 1.70398,-0.59869 2.76322,-1.05923 1.10529,-0.50659 1.65793,-0.50659 0.32238,0 0.55264,0.18421 0.27633,0.13817 0.41449,0.46054 0.13816,0.32238 0.18421,0.92107 0.0921,0.55265 0.0921,1.38161 0,0.5987 -0.046,1.05924 -0.0461,0.41448 -0.13817,0.78291 -0.0461,0.32238 -0.23026,0.5987 -0.13816,0.27632 -0.41449,0.55264 -0.23027,0.23027 -1.47371,0.82897 -1.24345,0.55264 -3.22376,1.10529 -1.98031,0.55264 -4.60537,0.96712 -2.579,0.46054 -5.52644,0.46054 -5.11195,0 -8.98046,-1.42766 -3.82246,-1.42767 -6.44752,-4.23694 -2.62505,-2.80927 -3.96061,-7.04621 -1.33556,-4.23694 -1.33556,-9.85549 0,-5.34222 1.38161,-9.57916 1.38161,-4.28299 3.96062,-7.23042 2.62506,-2.99349 6.30935,-4.55932 3.68429,-1.61188 8.24361,-1.61188 4.88169,0 8.28966,1.56583 3.45402,1.56582 5.6646,4.23694 2.21057,2.62506 3.22375,6.21724 1.05924,3.54613 1.05924,7.59886 l 0,1.38161 z m -7.64491,-2.25663 q 0.13816,-5.98698 -2.67111,-9.39495 -2.76322,-3.40797 -8.24361,-3.40797 -2.80927,0 -4.92774,1.05923 -2.11847,1.05924 -3.54613,2.80928 -1.42767,1.75003 -2.21058,4.09877 -0.78291,2.30268 -0.87502,4.83564 l 22.47419,0 z"
         style="stroke-width:2.35794759px"
         id="path8175" />
    </g>
    <g
       style="font-style:normal;font-variant:normal;font-weight:normal;font-stretch:normal;font-size:82.52816772px;line-height:125%;font-family:'Arial Black';-inkscape-font-specification:'Arial Black, Normal';text-align:start;letter-spacing:0px;word-spacing:0px;writing-mode:lr-tb;text-anchor:start;fill:url(#linearGradient4168);fill-opacity:1;stroke:#000000;stroke-width:2.35794759px;stroke-linecap:butt;stroke-linejoin:round;stroke-opacity:1"
       id="logo_Mechanic">
      <path
         d="m 300.70854,792.8646 24.01698,0 9.2683,35.94489 9.22801,-35.94489 23.93639,0 0,59.07534 -14.90987,0 0,-45.052 -11.56523,45.052 -13.49948,0 -11.52493,-45.052 0,45.052 -14.95017,0 0,-59.07534 z"
         style="font-style:normal;font-variant:normal;font-weight:normal;font-stretch:normal;font-size:82.52816772px;line-height:125%;font-family:'Arial Black';-inkscape-font-specification:'Arial Black, Normal';text-align:start;writing-mode:lr-tb;text-anchor:start;fill:url(#linearGradient4168);fill-opacity:1;stroke-width:2.35794759px"
         id="path8154" />
      <path
         d="m 425.18584,834.61225 -32.88232,0 q 0.44327,3.9491 2.13574,5.88336 2.37752,2.78049 6.20573,2.78049 2.41782,0 4.59385,-1.20891 1.3298,-0.76565 2.86109,-2.6999 l 16.15908,1.49099 q -3.70732,6.44751 -8.94593,9.2683 -5.2386,2.78049 -15.03076,2.78049 -8.50266,0 -13.37859,-2.37752 -4.87593,-2.41782 -8.09969,-7.61613 -3.18346,-5.2386 -3.18346,-12.29057 0,-10.03394 6.40722,-16.23967 6.44751,-6.20573 17.77096,-6.20573 9.1877,0 14.5069,2.78049 5.3192,2.78049 8.09969,8.05939 2.78049,5.2789 2.78049,13.74126 l 0,1.85366 z m -16.68294,-7.85791 q -0.48357,-4.75504 -2.57901,-6.81018 -2.05514,-2.05515 -5.44009,-2.05515 -3.9088,0 -6.24602,3.10287 -1.49099,1.93425 -1.89396,5.76246 l 16.15908,0 z"
         style="font-style:normal;font-variant:normal;font-weight:normal;font-stretch:normal;font-size:82.52816772px;line-height:125%;font-family:'Arial Black';-inkscape-font-specification:'Arial Black, Normal';text-align:start;writing-mode:lr-tb;text-anchor:start;fill:url(#linearGradient4168);fill-opacity:1;stroke-width:2.35794759px"
         id="path8156" />
      <path
         d="m 464.71714,835.2167 15.59493,1.77307 q -1.28951,4.87593 -4.23118,8.46236 -2.94168,3.54613 -7.53554,5.52068 -4.55355,1.97456 -11.60552,1.97456 -6.81018,0 -11.36374,-1.24921 -4.51326,-1.2895 -7.77731,-4.11029 -3.26406,-2.86108 -5.11772,-6.68929 -1.85366,-3.82822 -1.85366,-10.15484 0,-6.6087 2.25663,-11.00107 1.65218,-3.22375 4.51326,-5.76246 2.86109,-2.57901 5.88336,-3.82821 4.79534,-1.97455 12.29057,-1.97455 10.47721,0 15.95759,3.74761 5.52069,3.74762 7.73702,10.96078 l -15.43373,2.05514 q -0.72535,-2.74019 -2.6596,-4.11029 -1.89396,-1.41039 -5.11772,-1.41039 -4.06999,0 -6.6087,2.94168 -2.49841,2.90138 -2.49841,8.82503 0,5.2789 2.49841,8.01909 2.49841,2.7402 6.36692,2.7402 3.22376,0 5.39979,-1.65218 2.21634,-1.65217 3.30435,-5.07742 z"
         style="font-style:normal;font-variant:normal;font-weight:normal;font-stretch:normal;font-size:82.52816772px;line-height:125%;font-family:'Arial Black';-inkscape-font-specification:'Arial Black, Normal';text-align:start;writing-mode:lr-tb;text-anchor:start;fill:url(#linearGradient4168);fill-opacity:1;stroke-width:2.35794759px"
         id="path8158" />
      <path
         d="m 486.5581,792.8646 16.40086,0 0,21.76036 q 3.34465,-3.46554 6.649,-4.95653 3.30435,-1.49098 7.81761,-1.49098 6.6893,0 10.51751,4.06999 3.86851,4.06999 3.86851,12.49206 l 0,27.20044 -16.48146,0 0,-23.53342 q 0,-4.0297 -1.49099,-5.68187 -1.49098,-1.69247 -4.19088,-1.69247 -2.98198,0 -4.83564,2.25663 -1.85366,2.25662 -1.85366,8.09968 l 0,20.55145 -16.40086,0 0,-59.07534 z"
         style="font-style:normal;font-variant:normal;font-weight:normal;font-stretch:normal;font-size:82.52816772px;line-height:125%;font-family:'Arial Black';-inkscape-font-specification:'Arial Black, Normal';text-align:start;writing-mode:lr-tb;text-anchor:start;fill:url(#linearGradient4168);fill-opacity:1;stroke-width:2.35794759px"
         id="path8160" />
      <path
         d="m 556.71511,823.00673 -15.67552,-1.65218 q 0.88653,-4.11029 2.53871,-6.44751 1.69247,-2.37752 4.83563,-4.11029 2.25663,-1.24921 6.20574,-1.93426 3.9491,-0.68504 8.54295,-0.68504 7.37434,0 11.84731,0.84623 4.47296,0.80594 7.45493,3.42524 2.09544,1.81337 3.30435,5.15801 1.20891,3.30435 1.20891,6.32663 l 0,18.89927 q 0,3.02227 0.36267,4.75504 0.40297,1.69247 1.69248,4.35207 l -15.39344,0 q -0.92683,-1.65217 -1.20891,-2.49841 -0.28208,-0.88653 -0.56416,-2.74019 -3.22375,3.10286 -6.40721,4.43266 -4.35207,1.77307 -10.11454,1.77307 -7.65642,0 -11.64582,-3.54613 -3.9491,-3.54614 -3.9491,-8.74444 0,-4.87594 2.86108,-8.0191 2.86109,-3.14316 10.55781,-4.67444 9.228,-1.85366 11.96819,-2.57901 2.74019,-0.76564 5.80276,-1.97455 0,-3.02227 -1.2492,-4.23118 -1.24921,-1.20891 -4.39237,-1.20891 -4.0297,0 -6.04454,1.2895 -1.57159,1.00743 -2.53871,3.78792 z m 14.22482,8.62355 q -3.38494,1.2089 -7.05196,2.13573 -4.99683,1.3298 -6.32663,2.61931 -1.37009,1.3298 -1.37009,3.02227 0,1.93425 1.3298,3.18346 1.37009,1.20891 3.9894,1.20891 2.74019,0 5.07741,-1.3298 2.37752,-1.3298 3.34465,-3.22376 1.00742,-1.93425 1.00742,-4.99682 l 0,-2.6193 z"
         style="font-style:normal;font-variant:normal;font-weight:normal;font-stretch:normal;font-size:82.52816772px;line-height:125%;font-family:'Arial Black';-inkscape-font-specification:'Arial Black, Normal';text-align:start;writing-mode:lr-tb;text-anchor:start;fill:url(#linearGradient4168);fill-opacity:1;stroke-width:2.35794759px"
         id="path8162" />
      <path
         d="m 596.89116,809.14457 15.27254,0 0,6.97138 q 3.42525,-4.27148 6.93108,-6.08484 3.50584,-1.85366 8.54296,-1.85366 6.81018,0 10.63839,4.06999 3.86851,4.02969 3.86851,12.49206 l 0,27.20044 -16.48146,0 0,-23.53342 q 0,-4.0297 -1.49098,-5.68187 -1.49099,-1.69247 -4.19089,-1.69247 -2.98197,0 -4.83563,2.25663 -1.85366,2.25662 -1.85366,8.09968 l 0,20.55145 -16.40086,0 0,-42.79537 z"
         style="font-style:normal;font-variant:normal;font-weight:normal;font-stretch:normal;font-size:82.52816772px;line-height:125%;font-family:'Arial Black';-inkscape-font-specification:'Arial Black, Normal';text-align:start;writing-mode:lr-tb;text-anchor:start;fill:url(#linearGradient4168);fill-opacity:1;stroke-width:2.35794759px"
         id="path8164" />
      <path
         d="m 652.62186,792.8646 16.40086,0 0,11.16226 -16.40086,0 0,-11.16226 z m 0,16.27997 16.40086,0 0,42.79537 -16.40086,0 0,-42.79537 z"
         style="font-style:normal;font-variant:normal;font-weight:normal;font-stretch:normal;font-size:82.52816772px;line-height:125%;font-family:'Arial Black';-inkscape-font-specification:'Arial Black, Normal';text-align:start;writing-mode:lr-tb;text-anchor:start;fill:url(#linearGradient4168);fill-opacity:1;stroke-width:2.35794759px"
         id="path8166" />
      <path
         d="m 711.49571,835.2167 15.59492,1.77307 q -1.2895,4.87593 -4.23118,8.46236 -2.94168,3.54613 -7.53553,5.52068 -4.55356,1.97456 -11.60552,1.97456 -6.81019,0 -11.36375,-1.24921 -4.51326,-1.2895 -7.77731,-4.11029 -3.26405,-2.86108 -5.11771,-6.68929 -1.85366,-3.82822 -1.85366,-10.15484 0,-6.6087 2.25663,-11.00107 1.65217,-3.22375 4.51326,-5.76246 2.86108,-2.57901 5.88335,-3.82821 4.79534,-1.97455 12.29057,-1.97455 10.47721,0 15.9576,3.74761 5.52068,3.74762 7.73701,10.96078 l -15.43373,2.05514 q -0.72535,-2.74019 -2.6596,-4.11029 -1.89396,-1.41039 -5.11771,-1.41039 -4.07,0 -6.6087,2.94168 -2.49841,2.90138 -2.49841,8.82503 0,5.2789 2.49841,8.01909 2.49841,2.7402 6.36692,2.7402 3.22375,0 5.39979,-1.65218 2.21633,-1.65217 3.30435,-5.07742 z"
         style="font-style:normal;font-variant:normal;font-weight:normal;font-stretch:normal;font-size:82.52816772px;line-height:125%;font-family:'Arial Black';-inkscape-font-specification:'Arial Black, Normal';text-align:start;writing-mode:lr-tb;text-anchor:start;fill:url(#linearGradient4168);fill-opacity:1;stroke-width:2.35794759px"
         id="path8168" />
    </g>
    <g
       id="logo_gear"
       inkscape:label="#g4177">
      <path
         sodipodi:nodetypes="scccccccccscccccccccscccccccccscccccccccs"
         d="m 449.82951,677.16576 c -3.26524,0 -6.4471,0.3423 -9.53354,0.96829 l 0,7.37365 c -4.1352,0.99966 -8.00825,2.60349 -11.53562,4.76674 l -5.21958,-5.21364 c -2.66948,1.7711 -5.11245,3.84888 -7.37665,6.10742 -2.25231,2.25802 -4.3378,4.70097 -6.10142,7.37396 l 5.20767,5.21363 c -2.15703,3.53579 -3.76581,7.40288 -4.76678,11.54397 l -7.36468,0 c -0.63162,3.08054 -0.97722,6.26953 -0.97722,9.53356 0,3.26406 0.3456,6.45309 0.97722,9.53356 l 7.36468,0 c 1.00097,4.14115 2.60975,8.00818 4.76678,11.54515 l -5.20767,5.21368 c 1.76362,2.67177 3.84911,5.11477 6.10142,7.37302 2.2642,2.25828 4.70717,4.3366 7.37665,6.10747 l 5.21958,-5.21373 c 3.52737,2.16414 7.40042,3.76698 11.53562,4.7668 l 0,7.37425 c 3.08644,0.62563 6.2683,0.9677 9.53354,0.9677 3.26526,0 6.45896,-0.34207 9.53358,-0.9677 l 0,-7.37425 c 4.14707,-0.99982 8.00823,-2.60266 11.54748,-4.7668 l 5.2197,5.21373 c 2.66936,-1.77087 5.11234,-3.84919 7.36465,-6.10747 2.26417,-2.25825 4.33777,-4.70125 6.11335,-7.37302 l -5.2196,-5.21368 c 2.16894,-3.53697 3.76581,-7.404 4.76678,-11.54515 l 7.37663,0 c 0.63158,-3.08047 0.96523,-6.2695 0.96523,-9.53356 0,-3.26403 -0.33356,-6.45302 -0.96523,-9.53356 l -7.37663,0 c -1.00097,-4.14109 -2.59784,-8.00818 -4.76678,-11.54397 l 5.2196,-5.21363 c -1.77558,-2.67299 -3.84916,-5.11594 -6.11335,-7.37396 -2.25231,-2.25854 -4.69529,-4.33632 -7.36465,-6.10742 l -5.2197,5.21364 c -3.53925,-2.16323 -7.40041,-3.76708 -11.54748,-4.76674 l 0,-7.37365 c -3.07462,-0.62599 -6.26832,-0.96829 -9.53358,-0.96829 z"
         style="fill:#6b6b6b;fill-opacity:1;stroke:#000000;stroke-width:5.1356101;stroke-linecap:butt;stroke-linejoin:miter;stroke-miterlimit:4;stroke-dasharray:none;stroke-dashoffset:162;stroke-opacity:1"
         id="path58241"
         inkscape:connector-curvature="0" />
      <path
         style="fill:#ffffff;fill-opacity:1;stroke:#000000;stroke-width:4.71589518;stroke-linecap:round;stroke-linejoin:round;stroke-miterlimit:4;stroke-dasharray:none;stroke-opacity:1"
         d="M 464.56667,724.8335 A 14.737173,14.737173 0 0 1 449.8295,739.57067 14.737173,14.737173 0 0 1 435.09233,724.8335 14.737173,14.737173 0 0 1 449.8295,710.09632 14.737173,14.737173 0 0 1 464.56667,724.8335 Z"
         id="path4221" />
    </g>
    <path
       style="fill:none;fill-rule:evenodd;stroke:#000000;stroke-width:10.16850853;stroke-linecap:round;stroke-linejoin:miter;stroke-miterlimit:4;stroke-dasharray:none;stroke-opacity:1"
       d="m 450.04241,726.34884 c 14.87209,12.4801 14.17527,36.66585 35.37688,44.42456"
       id="logo_gear_tail"
       inkscape:connector-curvature="0"
       sodipodi:nodetypes="cc"
       inkscape:label="#path4210" />
  </g>
</svg>
